<?xml version="1.0" encoding="UTF-8"?><svg id="Layer_2" xmlns="http://www.w3.org/2000/svg" viewBox="0 0 148 67.01"><defs><style>.cls-1{fill:#be854c;}.cls-1,.cls-2{stroke-width:0px;}.cls-2{fill:#00583d;}</style></defs><g id="Layer_1-2"><path class="cls-1" d="m44.55,23.13c6.61-8.39,16.48-13.73,27.5-13.73,13.77,0,25.76,8.34,31.82,20.55h10.27C107.39,12.39,91.09,0,72.05,0c-16.47,0-30.89,9.26-38.85,23.13h11.35Z"/><path class="cls-2" d="m20.92,59.58l2.45,1.84c.33.28.72.52,1.18.73.46.21.96.31,1.5.31.89,0,1.82-.58,2.8-1.74l.61.51c-.7,1.43-1.63,2.75-2.78,3.96-1.15,1.21-2.65,1.82-4.52,1.82-1.17,0-2.29-.26-3.34-.77-1.05-.51-2.4-1.35-4.04-2.51-2.48-1.81-4.37-3.28-5.68-4.4-1.27-.7-2.27-1.32-3.01-1.86-.74-.54-1.49-1.29-2.25-2.23-1.31-1.64-2.27-3.55-2.9-5.7-.63-2.16-.94-4.35-.94-6.59s.33-4.55,1-6.67c.66-2.12,1.64-4,2.93-5.63,1.29-1.64,2.88-2.92,4.76-3.85,1.88-.93,4.02-1.4,6.41-1.4s4.44.46,6.33,1.4c1.88.93,3.47,2.2,4.74,3.82,1.28,1.61,2.24,3.45,2.9,5.5.65,2.06.98,4.19.98,6.39,0,1.49-.15,3.01-.45,4.55-.3,1.54-.75,3-1.34,4.35-.59,1.36-1.31,2.57-2.14,3.64-.94,1.18-1.84,2.07-2.7,2.66-.86.6-1.81,1.14-2.84,1.62.18.12.29.21.33.26Zm2.29-17.27c0-1.27-.06-2.65-.19-4.12-.12-1.47-.44-3.05-.94-4.72-.5-1.68-1.33-3.12-2.48-4.34-1.15-1.22-2.69-1.83-4.61-1.83-3.31,0-5.5,1.63-6.56,4.89-1.06,3.26-1.58,6.98-1.58,11.17,0,3.46.49,6.85,1.48,10.18.98,3.33,3.19,4.99,6.62,4.99,1.37,0,2.6-.4,3.69-1.19,1.09-.79,1.91-1.74,2.48-2.84,1.4-2.67,2.09-6.73,2.09-12.19Z"/><path class="cls-2" d="m47.1,60h-17.36v-.67c1.51,0,2.48-.4,2.92-1.21.43-.81.65-1.88.65-3.21v-24.06c0-1.23-.19-2.27-.58-3.14-.38-.87-1.3-1.3-2.75-1.3h-.23v-.67h15.03c2,0,3.65.27,4.97.81.67.31,1.36.75,2.09,1.33.73.57,1.4,1.38,2.01,2.42.61,1.04.91,2.27.91,3.7,0,1.81-.44,3.28-1.32,4.4-.88,1.12-1.86,1.91-2.93,2.37-1.08.46-2.12.81-3.12,1.05v.09c.82.09,1.74.28,2.77.56,1.02.28,2.01.73,2.97,1.35.96.62,1.78,1.52,2.46,2.71.68,1.19,1.02,2.68,1.02,4.48,0,1.89-.41,3.52-1.22,4.87-.82,1.36-1.9,2.42-3.26,3.18-.8.45-1.57.72-2.31.82-.74.09-1.64.14-2.7.14Zm-5.38-32.37h-2v13.78h2c1.49,0,2.92-.42,4.31-1.27,1.38-.85,2.07-2.77,2.07-5.78,0-2.22-.59-3.96-1.76-5.24-.4-.48-.94-.85-1.6-1.11-.67-.26-1.67-.38-3.01-.38Zm.2,15.69h-2.19v10.96c0,1.66.35,2.71,1.04,3.15.69.44,1.57.66,2.64.66.7,0,1.37-.05,2-.16.63-.11,1.27-.38,1.94-.81.67-.43,1.23-1.15,1.68-2.15.46-1,.68-2.35.68-4.06,0-1.89-.34-3.4-1.03-4.51-.68-1.12-1.61-1.91-2.77-2.37-1.16-.47-2.49-.7-3.99-.7Z"/><path class="cls-2" d="m61.46,50.77v-9.16c0-5.41,3.67-9.2,8.97-9.2,5.91,0,8.97,3.86,8.97,10.03v.08h-5.22v-.38c0-3.94-1.93-4.73-3.75-4.73s-3.71.98-3.71,4.05v9.47c0,3.14,1.89,4.09,3.71,4.09,2.42,0,3.75-1.17,3.75-5.07v-.34h5.22v.15c0,6.7-2.95,10.26-8.97,10.26-5.3,0-8.97-3.79-8.97-9.24Z"/><path class="cls-2" d="m82.66,50.77v-9.09c0-5.45,3.67-9.28,8.97-9.28s8.97,3.82,8.97,9.28v9.09c0,5.42-3.71,9.2-8.97,9.2s-8.97-3.79-8.97-9.2Zm8.97,4.2c1.78,0,3.75-.95,3.75-4.01v-9.47c0-2.99-1.78-4.09-3.75-4.09-1.85,0-3.71.98-3.71,4.05v9.47c0,2.99,1.74,4.05,3.71,4.05Z"/><path class="cls-2" d="m103.86,32.9h8.48c5.34,0,8.94,3.44,8.94,9.65v.76c0,4.13-1.78,6.89-4.66,8.18l4.51,8.1h-5.72l-3.6-6.89h-2.73v6.89h-5.22v-26.69Zm7.84,14.84c2.27,0,4.39-.99,4.39-4.51v-.76c0-3.67-2.04-4.58-4.39-4.58h-2.61v9.84h2.61Z"/><path class="cls-2" d="m124.53,32.9h8.37c5.26,0,9.05,3.44,9.05,9.69v1.06c0,6.28-3.79,9.58-9.05,9.58h-3.14v6.36h-5.22v-26.69Zm7.84,15.37c2.27,0,4.43-1.06,4.43-4.66v-.98c0-3.94-2.23-4.73-4.43-4.73h-2.61v10.37h2.61Z"/><path class="cls-2" d="m141.94,56.9c0-1.67,1.36-3.03,3.03-3.03s3.03,1.36,3.03,3.03-1.33,2.99-3.03,2.99-3.03-1.33-3.03-2.99Z"/></g></svg>