<svg width="128" height="121" viewBox="0 0 128 121" fill="none" xmlns="http://www.w3.org/2000/svg">
<mask id="mask0_2_800" style="mask-type:luminance" maskUnits="userSpaceOnUse" x="103" y="0" width="25" height="40">
<path d="M104.1 38.4408L105.832 35.5885L107.563 32.7363L109.294 29.8839L111.025 27.0317L112.756 24.1794L114.487 21.3271L116.219 18.4748L117.95 15.6225L119.681 12.7703L121.412 9.91789L123.143 7.06566L124.874 4.21338L126.605 1.36106L126.886 0.899441L127.43 0.00289536V0.0111427L118.717 39.8869C113.586 39.5305 108.417 39.5274 103.25 39.8411L104.1 38.4408Z" fill="white"/>
</mask>
<g mask="url(#mask0_2_800)">
<path fill-rule="evenodd" clip-rule="evenodd" d="M104.1 38.4408L105.832 35.5885L107.563 32.7363L109.294 29.8839L111.025 27.0317L112.756 24.1794L114.487 21.3271L116.219 18.4748L117.95 15.6225L119.681 12.7703L121.412 9.91789L123.143 7.06566L124.874 4.21338L126.605 1.36106L126.886 0.899441L127.43 0.00289536V0.0111427L118.717 39.8869C113.586 39.5305 108.417 39.5274 103.25 39.8411L104.1 38.4408Z" fill="url(#paint0_linear_2_800)"/>
</g>
<mask id="mask1_2_800" style="mask-type:luminance" maskUnits="userSpaceOnUse" x="17" y="0" width="111" height="71">
<path d="M127.43 3.8147e-05V0.00292206L103.82 38.9025L103.25 39.8411C90.3871 40.6218 77.5425 43.3628 65.3521 47.4902C48.6725 53.1375 33.0051 61.2194 17.8691 70.2841L127.43 3.8147e-05Z" fill="white"/>
</mask>
<g mask="url(#mask1_2_800)">
<path fill-rule="evenodd" clip-rule="evenodd" d="M127.43 3.8147e-05V0.00292206L103.82 38.9025L103.25 39.8411C90.3871 40.6218 77.5425 43.3628 65.3521 47.4902C48.6725 53.1375 33.0051 61.2194 17.8691 70.2841L127.43 3.8147e-05Z" fill="url(#paint1_linear_2_800)"/>
</g>
<path fill-rule="evenodd" clip-rule="evenodd" d="M103.25 39.841L91.3667 59.421L109.55 81.5857L118.717 39.8869C113.576 39.5319 108.427 39.5286 103.25 39.841Z" fill="#2A4F6F"/>
<path fill-rule="evenodd" clip-rule="evenodd" d="M91.3667 59.421L103.25 39.8411C90.3872 40.6218 77.5425 43.3628 65.3522 47.4902C48.6726 53.1375 33.0052 61.2194 17.8692 70.284L0 81.7473L91.3667 59.421Z" fill="#296389"/>
<path d="M103.25 39.841C101.783 40.0817 100.13 40.1786 98.6225 40.3412C98.0434 40.4074 97.4187 40.4965 96.7504 40.5816C96.4166 40.6254 96.072 40.6705 95.7174 40.717C95.3639 40.7731 95.0002 40.831 94.6269 40.8901C93.8812 41.0126 93.0944 41.1204 92.278 41.2631C90.6484 41.5692 88.8777 41.8647 87.0228 42.2745C86.5582 42.3717 86.0873 42.4704 85.6106 42.5704C85.134 42.671 84.6504 42.7659 84.1671 42.8889C83.1974 43.1195 82.2066 43.355 81.199 43.5945C80.9472 43.6541 80.6942 43.7139 80.4403 43.774C80.1859 43.8319 79.9315 43.8945 79.6782 43.9657C79.1703 44.1022 78.6589 44.2399 78.1443 44.3782C77.1146 44.6531 76.0725 44.9312 75.0219 45.2114C73.9798 45.5213 72.9292 45.8333 71.8745 46.1468C71.3473 46.3039 70.819 46.4614 70.2903 46.619L69.497 46.8554C69.2331 46.9372 68.9725 47.0285 68.71 47.1146C67.6606 47.4595 66.611 47.8043 65.5656 48.1479C64.5216 48.4952 63.4733 48.8176 62.457 49.2055C61.4344 49.5762 60.4199 49.9438 59.4177 50.3071C58.9159 50.4877 58.4173 50.6672 57.9224 50.8453C57.6749 50.9343 57.4283 51.0233 57.1826 51.1116C56.9398 51.2075 56.6979 51.3031 56.457 51.3983C54.5294 52.1594 52.6658 52.8951 50.8986 53.5929C50.4539 53.7604 50.026 53.9514 49.6022 54.1344C49.1783 54.3168 48.7609 54.4968 48.3504 54.6737C47.5281 55.0251 46.7337 55.3646 45.971 55.6906C45.2078 56.0159 44.4764 56.3281 43.7808 56.6247C43.6071 56.6993 43.4337 56.7689 43.266 56.8449C43.0989 56.9222 42.9342 56.9985 42.7717 57.0739C42.4469 57.2244 42.1312 57.3706 41.8253 57.5122C40.6001 58.0762 39.532 58.5681 38.6525 58.9731C36.8877 59.7743 35.8613 60.2068 35.8613 60.2068C35.8613 60.2068 36.8568 59.6948 38.5801 58.8257C39.4422 58.3826 40.4894 57.8445 41.6903 57.2272C41.9907 57.0737 42.3013 56.9151 42.6208 56.7519C42.7805 56.6703 42.9427 56.5873 43.1069 56.5033C43.2719 56.4209 43.4425 56.3447 43.6135 56.2633C44.3005 55.9444 45.0228 55.609 45.7766 55.2589C46.5307 54.9093 47.3165 54.5451 48.1296 54.1682C48.5368 53.9809 48.9509 53.7905 49.3714 53.5971C49.7922 53.4044 50.2173 53.2037 50.6594 53.026C52.4187 52.2934 54.274 51.521 56.1934 50.722C56.4338 50.6233 56.6753 50.5242 56.9176 50.4247C57.163 50.3327 57.4093 50.2404 57.6564 50.1477C58.1508 49.9623 58.6487 49.7756 59.1497 49.5878C60.1527 49.2144 61.1678 48.8363 62.1909 48.4554C63.2097 48.0615 64.2608 47.733 65.3075 47.3796C66.3559 47.0303 67.4085 46.6799 68.461 46.3293C68.725 46.2439 68.9871 46.1535 69.2524 46.0724L70.0504 45.8383C70.5823 45.6824 71.1135 45.5265 71.6437 45.3709C72.7045 45.0608 73.7609 44.7518 74.8091 44.4453C75.8671 44.1735 76.9165 43.9035 77.9533 43.6371C78.472 43.5047 78.9875 43.3733 79.4993 43.2429C79.7545 43.1748 80.0108 43.1153 80.2672 43.0604C80.5233 43.0033 80.7782 42.9466 81.0319 42.89C82.0475 42.6652 83.0461 42.4443 84.0237 42.2278C84.5113 42.1149 84.9995 42.03 85.4803 41.9393C85.9611 41.8492 86.436 41.7604 86.9048 41.6727C88.7741 41.2962 90.5622 41.0539 92.2055 40.7975C93.0292 40.6803 93.8218 40.5909 94.5741 40.4976C94.9503 40.4526 95.3171 40.4086 95.6735 40.3659C96.0311 40.333 96.3784 40.3008 96.715 40.2697C97.3883 40.2112 98.0167 40.1419 98.6004 40.1049C99.184 40.0691 99.7199 40.0363 100.204 40.0066C100.921 39.9604 102.824 39.8702 103.25 39.841Z" fill="white"/>
<path d="M1.12581 83.1634H7.24105C7.8377 83.1634 8.13598 83.4243 8.13598 83.9464V108.892C8.13598 109.613 7.73823 109.974 6.94276 109.974H0.93937C0.342736 109.974 0.0444336 109.713 0.0444336 109.19V84.2447C0.0444336 83.5238 0.404901 83.1634 1.12581 83.1634ZM9.81392 106.021V98.0413C9.81392 97.743 9.84504 97.5069 9.90713 97.3328C9.96929 97.1589 10.1371 96.9103 10.4106 96.5871L20.553 83.9464C20.9755 83.4243 21.4727 83.1634 22.0445 83.1634H28.6072C29.1044 83.1634 29.3468 83.2566 29.3343 83.443C29.3219 83.6294 29.1789 83.8967 28.9055 84.2447L10.9699 106.021C10.5722 106.493 10.2739 106.729 10.075 106.729C9.90095 106.729 9.81392 106.493 9.81392 106.021ZM14.4376 108.892L35.0208 83.9464C35.4682 83.3995 35.9779 83.126 36.5496 83.126H42.4412C43.0129 83.126 43.2988 83.3995 43.2988 83.9464L43.7463 108.892C43.7463 109.613 43.3609 109.974 42.5903 109.974H36.6988C36.1021 109.974 35.8163 109.7 35.8411 109.153V105.797C35.8411 105.574 35.7168 105.462 35.4682 105.462H29.2038C28.4083 105.462 28.3089 105.101 28.9055 104.38L32.1869 100.241C32.4603 99.8933 32.6903 99.6758 32.8767 99.5888C33.0632 99.5018 33.3553 99.4583 33.753 99.4583H35.5055C35.7541 99.4583 35.8784 99.3464 35.8784 99.1227L35.8411 93.4176L23.3123 109.153C23.0388 109.501 22.8089 109.725 22.6225 109.824C22.436 109.924 22.1564 109.974 21.7834 109.974H14.6987C13.9281 109.974 13.8411 109.613 14.4376 108.892ZM45.014 108.967L55.0445 84.1329C55.3428 83.4616 55.8027 83.126 56.4242 83.126H73.9496C75.7146 83.126 76.9638 83.7413 77.6971 84.9718C78.4304 86.2024 78.4367 87.6876 77.7157 89.4278L74.3971 97.3328C73.7508 98.8493 72.9118 99.9057 71.8801 100.502C70.8485 101.099 69.3259 101.397 67.3124 101.397L70.1835 108.93C70.4818 109.626 70.1711 109.974 69.2514 109.974H63.0615C62.44 109.974 62.0547 109.762 61.9056 109.34L58.9598 101.397H58.5869C57.9406 101.397 57.7417 101.074 57.9903 100.428L59.9293 95.6549C60.2276 94.9837 60.6875 94.6481 61.3089 94.6481H67.3869C67.6355 94.6481 67.8095 94.5238 67.909 94.2752L69.4005 90.5464C69.475 90.2978 69.4005 90.1735 69.1767 90.1735H60.8242C60.5508 90.1735 60.3767 90.2978 60.3022 90.5464L52.8445 108.967C52.5462 109.638 52.0863 109.974 51.4649 109.974H45.5733C44.9021 109.974 44.7157 109.638 45.014 108.967ZM74.0242 108.967L84.0547 84.1329C84.3531 83.4616 84.813 83.126 85.4345 83.126H91.326C91.848 83.126 92.1836 83.3498 92.3327 83.7972L96.509 96.1769C96.509 96.2763 96.5339 96.3261 96.5836 96.3261C96.6581 96.3261 96.7079 96.2515 96.7327 96.1024L101.58 84.1329C101.879 83.4616 102.338 83.126 102.96 83.126H108.814C109.51 83.126 109.709 83.4616 109.411 84.1329L99.3802 108.967C99.0819 109.638 98.6096 109.974 97.9632 109.974H92.109C91.5869 109.974 91.2514 109.75 91.1022 109.302L86.9632 96.8854C86.9384 96.786 86.9011 96.7363 86.8513 96.7363C86.8265 96.7363 86.7768 96.8108 86.7022 96.96L81.8548 108.967C81.5565 109.638 81.0965 109.974 80.4751 109.974H74.5835C73.9123 109.974 73.7259 109.638 74.0242 108.967Z" fill="#2A4F6F"/>
<path d="M0.961989 119.669C0.831948 120.031 0.687507 120.305 0.355127 120.349C0.297334 120.356 0.196171 120.363 0.145605 120.363C0.109493 120.363 0.0805664 120.377 0.0805664 120.406C0.0805664 120.45 0.123929 120.464 0.217858 120.464C0.55739 120.464 0.954812 120.442 1.03421 120.442C1.11371 120.442 1.42438 120.464 1.59779 120.464C1.66283 120.464 1.70613 120.45 1.70613 120.406C1.70613 120.377 1.68444 120.363 1.6339 120.363H1.56165C1.43881 120.363 1.28709 120.298 1.28709 120.153C1.28709 120.023 1.3232 119.85 1.38827 119.669L1.82173 118.391C1.83624 118.355 1.85785 118.333 1.89403 118.333H3.44729C3.48348 118.333 3.49791 118.347 3.51234 118.376L4.18425 120.153C4.22762 120.269 4.18425 120.334 4.14086 120.349C4.112 120.356 4.09032 120.37 4.09032 120.399C4.09032 120.442 4.16982 120.442 4.30709 120.45C4.8056 120.464 5.33299 120.464 5.44132 120.464C5.5208 120.464 5.58587 120.45 5.58587 120.406C5.58587 120.37 5.55694 120.363 5.51362 120.363C5.44132 120.363 5.33299 120.356 5.22463 120.32C5.07291 120.276 4.86339 120.161 4.60326 119.518C4.16257 118.42 3.02826 115.436 2.9199 115.161C2.83325 114.937 2.80432 114.901 2.76096 114.901C2.71764 114.901 2.68871 114.944 2.60206 115.183L0.961989 119.669ZM1.97343 118.073C1.95183 118.073 1.93732 118.058 1.95183 118.022L2.58755 116.071C2.62366 115.963 2.65985 115.963 2.69596 116.071L3.3823 118.022C3.38955 118.051 3.38955 118.073 3.35336 118.073H1.97343ZM7.03078 117.596C7.03078 116.642 7.03077 116.469 7.03802 116.274C7.05245 116.057 7.08857 115.963 7.27647 115.927C7.3487 115.92 7.44263 115.912 7.48599 115.912C7.50767 115.912 7.53653 115.891 7.53653 115.869C7.53653 115.833 7.50042 115.819 7.43537 115.819C7.24029 115.819 6.76346 115.833 6.73461 115.833C6.69847 115.833 6.30107 115.819 6.01213 115.819C5.93983 115.819 5.91097 115.833 5.91097 115.869C5.91097 115.891 5.93983 115.92 5.96151 115.92C6.01933 115.92 6.12773 115.927 6.17828 115.934C6.38779 115.963 6.42391 116.064 6.43834 116.274C6.45284 116.469 6.45284 116.642 6.45284 117.596V118.68C6.45284 119.272 6.45284 119.756 6.41665 120.009C6.38779 120.19 6.37336 120.305 6.2505 120.334C6.19271 120.349 6.11323 120.363 6.05544 120.363C6.01933 120.363 6.00488 120.392 6.00488 120.414C6.00488 120.45 6.04101 120.464 6.10606 120.464C6.20714 120.464 6.34443 120.457 6.47445 120.45C6.59731 120.442 6.70565 120.442 6.73461 120.442C6.92241 120.442 7.13918 120.45 7.42817 120.457C7.72437 120.471 8.0784 120.479 8.53354 120.479C8.8731 120.479 8.89479 120.457 8.93815 120.312C8.98869 120.132 9.03205 119.763 9.03205 119.698C9.03205 119.633 9.01762 119.604 8.98869 119.604C8.95258 119.604 8.9309 119.641 8.92372 119.684C8.90204 119.807 8.85142 119.937 8.772 120.031C8.62022 120.211 8.33846 120.219 8.00618 120.219C7.50767 120.219 7.26197 120.175 7.16087 120.074C7.04528 119.966 7.03078 119.597 7.03078 118.694V117.596ZM10.896 117.596C10.896 116.642 10.896 116.469 10.9032 116.274C10.9177 116.057 10.9538 115.963 11.1417 115.927C11.2139 115.92 11.3078 115.912 11.3512 115.912C11.3729 115.912 11.4018 115.891 11.4018 115.869C11.4018 115.833 11.3656 115.819 11.3006 115.819C11.1055 115.819 10.6287 115.833 10.5998 115.833C10.5637 115.833 10.1663 115.819 9.87736 115.819C9.80507 115.819 9.77621 115.833 9.77621 115.869C9.77621 115.891 9.80507 115.92 9.82675 115.92C9.88454 115.92 9.99295 115.927 10.0435 115.934C10.253 115.963 10.2892 116.064 10.3036 116.274C10.3181 116.469 10.3181 116.642 10.3181 117.596V118.68C10.3181 119.272 10.3181 119.756 10.2819 120.009C10.253 120.19 10.2386 120.305 10.1157 120.334C10.0579 120.349 9.97845 120.363 9.92066 120.363C9.88455 120.363 9.87012 120.392 9.87012 120.414C9.87012 120.45 9.90623 120.464 9.97127 120.464C10.0724 120.464 10.2096 120.457 10.3397 120.45C10.4625 120.442 10.5709 120.442 10.5998 120.442C10.7877 120.442 11.0044 120.45 11.2934 120.457C11.5896 120.471 11.9436 120.479 12.3988 120.479C12.7383 120.479 12.76 120.457 12.8034 120.312C12.8539 120.132 12.8973 119.763 12.8973 119.698C12.8973 119.633 12.8829 119.604 12.8539 119.604C12.8178 119.604 12.7961 119.641 12.7889 119.684C12.7672 119.807 12.7166 119.937 12.6372 120.031C12.4854 120.211 12.2037 120.219 11.8714 120.219C11.3729 120.219 11.1272 120.175 11.0261 120.074C10.9105 119.966 10.896 119.597 10.896 118.694V117.596ZM14.6674 119.395C14.6674 119.496 14.6674 119.756 14.6529 120.009C14.6384 120.19 14.5951 120.305 14.4651 120.334C14.4072 120.349 14.335 120.363 14.2772 120.363C14.2411 120.363 14.2267 120.392 14.2267 120.414C14.2267 120.45 14.2555 120.464 14.3278 120.464C14.5157 120.464 14.9202 120.442 14.9491 120.442C14.9852 120.442 15.3971 120.464 15.7511 120.464C15.8161 120.464 15.8522 120.442 15.8522 120.414C15.8522 120.392 15.8378 120.363 15.8017 120.363C15.7439 120.363 15.5993 120.349 15.5127 120.334C15.3248 120.305 15.2815 120.19 15.2671 120.009C15.2454 119.756 15.2454 119.496 15.2454 119.395V118.867C15.2454 118.665 15.2164 118.47 15.3249 118.253C15.4549 117.993 16.3507 116.548 16.5602 116.303C16.6975 116.137 16.7553 116.071 16.8782 115.999C16.9793 115.941 17.1021 115.92 17.1744 115.92C17.2249 115.92 17.2538 115.884 17.2538 115.855C17.2538 115.833 17.2177 115.819 17.1744 115.819C17.0515 115.819 16.5964 115.833 16.553 115.833C16.5025 115.833 16.2785 115.819 16.1123 115.819C16.0473 115.819 16.0112 115.833 16.0112 115.855C16.0112 115.884 16.0473 115.912 16.1051 115.927C16.1773 115.949 16.2063 115.999 16.2063 116.086C16.2063 116.165 16.1773 116.267 16.0979 116.404C15.9823 116.606 15.1876 117.921 15.0575 118.181L13.9016 116.267C13.8582 116.187 13.8148 116.115 13.8148 116.028C13.8148 115.978 13.8438 115.949 13.8943 115.927C13.9521 115.905 13.9955 115.884 13.9955 115.862C13.9955 115.833 13.981 115.819 13.9087 115.819C13.6631 115.819 13.403 115.833 13.3597 115.833C13.3308 115.833 12.8539 115.819 12.7311 115.819C12.6734 115.819 12.6517 115.833 12.6517 115.862C12.6517 115.891 12.6806 115.92 12.7167 115.92C12.7673 115.92 12.8901 115.949 12.984 116.006C13.0996 116.086 13.2513 116.223 13.4031 116.454C13.6198 116.779 14.4796 118.145 14.5301 118.239C14.624 118.412 14.6674 118.535 14.6674 118.867V119.395ZM18.6843 117.596C18.6843 116.642 18.6843 116.469 18.6916 116.274C18.706 116.057 18.7421 115.97 18.9155 115.934C18.9878 115.92 19.0311 115.92 19.0745 115.92C19.0962 115.92 19.125 115.891 19.125 115.869C19.125 115.833 19.0962 115.819 19.0239 115.819C18.8289 115.819 18.417 115.833 18.3881 115.833C18.352 115.833 17.9546 115.819 17.7451 115.819C17.6729 115.819 17.644 115.833 17.644 115.869C17.644 115.891 17.6657 115.92 17.6945 115.92C17.7379 115.92 17.8174 115.927 17.8896 115.941C18.0269 115.97 18.0775 116.064 18.0919 116.274C18.1064 116.469 18.1064 116.642 18.1064 117.596V118.68C18.1064 119.272 18.0992 119.756 18.0702 120.009C18.0486 120.19 18.0269 120.305 17.9041 120.334C17.8463 120.349 17.7668 120.363 17.709 120.363C17.6729 120.363 17.6584 120.392 17.6584 120.414C17.6584 120.45 17.6945 120.464 17.7596 120.464C17.9546 120.464 18.352 120.442 18.3881 120.442C18.417 120.442 18.8289 120.464 19.1828 120.464C19.2551 120.464 19.284 120.442 19.284 120.414C19.284 120.392 19.2696 120.363 19.2335 120.363C19.1757 120.363 19.0384 120.349 18.9445 120.334C18.7566 120.305 18.7349 120.19 18.7133 120.009C18.6843 119.756 18.6843 119.272 18.6843 118.68V117.596ZM20.9674 116.729C21.1624 116.946 21.8765 117.697 22.6134 118.47C23.2841 119.171 24.2017 120.074 24.2667 120.132C24.6207 120.457 24.6869 120.508 24.752 120.508C24.7953 120.508 24.8025 120.471 24.8025 120.067L24.817 116.469C24.817 116.1 24.8315 115.978 25.041 115.934C25.1132 115.92 25.1638 115.92 25.1927 115.92C25.236 115.92 25.2649 115.884 25.2649 115.862C25.2649 115.826 25.2144 115.819 25.1493 115.819C24.8893 115.819 24.6797 115.833 24.6062 115.833C24.534 115.833 24.2306 115.819 23.9416 115.819C23.8694 115.819 23.8187 115.826 23.8187 115.862C23.8187 115.884 23.826 115.92 23.8694 115.92C23.9199 115.92 24.0644 115.927 24.18 115.949C24.3751 115.985 24.4112 116.122 24.4184 116.519L24.4835 119.597C24.2884 119.395 23.6092 118.665 22.9819 118.015C21.9993 117.003 21.0758 116.021 20.9746 115.92C20.9096 115.855 20.8012 115.732 20.729 115.732C20.6784 115.732 20.6422 115.797 20.6422 116.043V119.561C20.6422 120.117 20.6206 120.283 20.4617 120.327C20.3678 120.356 20.2522 120.363 20.2015 120.363C20.1727 120.363 20.151 120.385 20.151 120.414C20.151 120.457 20.1871 120.464 20.2522 120.464C20.5411 120.464 20.8085 120.442 20.8663 120.442C20.9241 120.442 21.1769 120.464 21.5369 120.464C21.6092 120.464 21.6525 120.45 21.6525 120.414C21.6525 120.385 21.6309 120.363 21.602 120.363C21.5442 120.363 21.3997 120.356 21.2841 120.327C21.1119 120.283 21.0541 120.132 21.0396 119.626L20.9674 116.729ZM29.6804 119.958C29.6804 120.074 29.6299 120.103 29.5504 120.146C29.3842 120.24 29.088 120.262 28.864 120.262C28.2789 120.262 27.7442 120.088 27.2385 119.619C27.0145 119.409 26.5666 118.788 26.5666 117.921C26.5666 117.206 26.8266 116.657 27.1951 116.375C27.6792 116.006 28.1416 115.978 28.5245 115.978C29.3481 115.978 29.8322 116.223 29.9911 116.454C30.0922 116.599 30.1284 116.779 30.1356 116.859C30.1356 116.917 30.1428 116.953 30.1789 116.953C30.2223 116.953 30.2512 116.924 30.2512 116.823C30.2512 116.209 30.2873 116.043 30.2873 115.956C30.2873 115.927 30.2729 115.898 30.2079 115.898C30.0489 115.898 29.8249 115.862 29.6949 115.833C29.5721 115.804 29.1242 115.732 28.7196 115.732C28.2355 115.732 27.5997 115.775 27.029 116.122C26.4654 116.462 25.9669 117.155 25.9669 118.138C25.9669 118.904 26.3354 119.561 26.7255 119.886C27.4336 120.486 28.3367 120.544 28.8207 120.544C29.1891 120.544 29.7671 120.479 30.1717 120.269C30.2512 120.226 30.2584 120.219 30.2584 119.937V119.25C30.2584 118.99 30.2584 118.81 30.2657 118.615C30.2801 118.398 30.3307 118.304 30.5041 118.275C30.5763 118.261 30.6196 118.261 30.663 118.261C30.6847 118.261 30.7136 118.232 30.7136 118.21C30.7136 118.167 30.6847 118.159 30.6124 118.159C30.4174 118.159 30.02 118.174 29.9911 118.174C29.955 118.174 29.5287 118.159 29.2397 118.159C29.1675 118.159 29.1386 118.167 29.1386 118.21C29.1386 118.232 29.1674 118.261 29.1891 118.261C29.2469 118.261 29.3553 118.268 29.4059 118.275C29.666 118.326 29.6804 118.398 29.6804 118.896V119.958ZM37.7288 115.363C37.6421 115.118 37.5988 115.024 37.5482 115.024C37.5048 115.024 37.4759 115.06 37.3676 115.356L35.8359 119.482H35.8215C35.7131 119.099 34.9618 116.447 34.8533 115.985C34.7811 115.667 34.716 115.414 34.716 115.32C34.716 115.226 34.7667 115.168 34.81 115.147C34.8967 115.103 35.034 115.103 35.0918 115.103C35.1279 115.103 35.164 115.096 35.164 115.053C35.164 115.024 35.1352 115.002 35.034 115.002C34.6728 115.002 34.3548 115.024 34.2898 115.024C34.2104 115.024 33.813 115.002 33.4373 115.002C33.365 115.002 33.3217 115.017 33.3217 115.053C33.3217 115.096 33.3506 115.103 33.3867 115.103C33.4373 115.103 33.6179 115.111 33.7119 115.147C33.8997 115.219 33.9936 115.327 34.1092 115.71L35.3952 119.995C35.5397 120.486 35.5759 120.565 35.6481 120.565C35.7347 120.565 35.7709 120.486 35.8865 120.182C36.1466 119.51 37.1364 116.859 37.3965 116.165H37.411L38.827 120.19C38.9282 120.471 38.9714 120.565 39.0437 120.565C39.1232 120.565 39.1593 120.479 39.3472 119.944C39.6289 119.135 40.3586 116.837 40.6765 115.92C40.8138 115.522 40.9294 115.219 41.1461 115.14C41.2256 115.111 41.3629 115.103 41.3918 115.103C41.4351 115.103 41.4568 115.082 41.4568 115.046C41.4568 115.017 41.4207 115.002 41.3556 115.002C41.1317 115.002 40.821 115.024 40.7704 115.024C40.7054 115.024 40.402 115.002 40.0335 115.002C39.9468 115.002 39.9107 115.017 39.9107 115.053C39.9107 115.082 39.9396 115.103 39.9757 115.103C40.3081 115.103 40.3875 115.19 40.3875 115.32C40.3875 115.414 40.3803 115.515 40.3081 115.782C40.0552 116.707 39.3905 118.802 39.1955 119.467H39.1665L37.7288 115.363ZM43.0462 117.596C43.0462 116.642 43.0462 116.469 43.0534 116.274C43.0679 116.057 43.104 115.97 43.2774 115.934C43.3497 115.92 43.393 115.92 43.4363 115.92C43.458 115.92 43.4869 115.891 43.4869 115.869C43.4869 115.833 43.458 115.819 43.3858 115.819C43.1907 115.819 42.7789 115.833 42.75 115.833C42.7139 115.833 42.3165 115.819 42.107 115.819C42.0347 115.819 42.0059 115.833 42.0059 115.869C42.0059 115.891 42.0275 115.92 42.0564 115.92C42.0998 115.92 42.1793 115.927 42.2515 115.941C42.3888 115.97 42.4393 116.064 42.4537 116.274C42.4683 116.469 42.4683 116.642 42.4683 117.596V118.68C42.4683 119.272 42.461 119.756 42.4321 120.009C42.4105 120.19 42.3888 120.305 42.2659 120.334C42.2081 120.349 42.1287 120.363 42.0709 120.363C42.0347 120.363 42.0203 120.392 42.0203 120.414C42.0203 120.45 42.0564 120.464 42.1215 120.464C42.3165 120.464 42.7139 120.442 42.75 120.442C42.7789 120.442 43.1907 120.464 43.5447 120.464C43.617 120.464 43.6459 120.442 43.6459 120.414C43.6459 120.392 43.6314 120.363 43.5953 120.363C43.5375 120.363 43.4002 120.349 43.3063 120.334C43.1185 120.305 43.0968 120.19 43.0751 120.009C43.0462 119.756 43.0462 119.272 43.0462 118.68V117.596ZM46.6658 116.1L47.4593 116.115C48.065 116.129 48.2023 116.267 48.224 116.454L48.2312 116.519C48.2384 116.606 48.2528 116.628 48.2818 116.628C48.3118 116.628 48.3408 116.599 48.3408 116.548C48.3408 116.476 48.3624 116.035 48.3624 115.848C48.3624 115.811 48.3624 115.775 48.3335 115.775C48.3046 115.775 48.2456 115.79 48.1517 115.804C48.0506 115.819 47.906 115.833 47.6977 115.833H45.3003C45.228 115.833 44.9824 115.826 44.8018 115.804C44.6284 115.782 44.5634 115.732 44.52 115.732C44.4983 115.732 44.4622 115.811 44.4551 115.848C44.4405 115.898 44.3178 116.447 44.3178 116.512C44.3178 116.548 44.3466 116.563 44.3611 116.563C44.39 116.563 44.4117 116.556 44.4261 116.505C44.4478 116.462 44.4551 116.418 44.5273 116.31C44.6212 116.165 44.7729 116.122 45.1703 116.115L46.0878 116.1V118.68C46.0878 119.272 46.0878 119.756 46.0589 120.009C46.0372 120.19 46.0011 120.312 45.8711 120.341C45.8133 120.356 45.741 120.37 45.6832 120.37C45.6471 120.37 45.6327 120.392 45.6327 120.414C45.6327 120.45 45.6616 120.464 45.7338 120.464C45.9216 120.464 46.3624 120.442 46.3913 120.442C46.4274 120.442 46.8307 120.464 47.1775 120.464C47.2498 120.464 47.2787 120.442 47.2787 120.414C47.2787 120.392 47.2715 120.363 47.2281 120.363C47.1704 120.363 47.0258 120.349 46.9391 120.334C46.7453 120.305 46.7164 120.19 46.6947 120.009C46.6658 119.756 46.6658 119.272 46.6658 118.68V116.1ZM53.5654 117.596C53.5654 116.642 53.5654 116.469 53.5799 116.274C53.5944 116.057 53.6305 115.97 53.7966 115.934C53.8761 115.92 53.9122 115.92 53.9556 115.92C53.9845 115.92 54.0134 115.891 54.0134 115.869C54.0134 115.833 53.9773 115.819 53.905 115.819C53.7171 115.819 53.3126 115.833 53.2764 115.833C53.2476 115.833 52.8357 115.819 52.554 115.819C52.4818 115.819 52.4528 115.833 52.4528 115.869C52.4528 115.891 52.4745 115.92 52.5034 115.92C52.5612 115.92 52.6696 115.927 52.7201 115.934C52.9297 115.963 52.9586 116.064 52.973 116.274C52.9803 116.469 52.9874 116.657 52.9874 117.61V117.74C52.9874 117.777 52.973 117.777 52.9513 117.777H50.2999C50.2782 117.777 50.2637 117.777 50.2637 117.74V117.61C50.2637 116.657 50.2637 116.469 50.271 116.274C50.2854 116.057 50.3215 115.97 50.4949 115.934C50.5672 115.92 50.6105 115.92 50.6539 115.92C50.6755 115.92 50.7044 115.891 50.7044 115.869C50.7044 115.833 50.6755 115.819 50.6033 115.819C50.4082 115.819 50.0036 115.833 49.9747 115.833C49.9386 115.833 49.534 115.819 49.2451 115.819C49.1728 115.819 49.1439 115.833 49.1439 115.869C49.1439 115.891 49.1728 115.92 49.1945 115.92C49.2522 115.92 49.3607 115.927 49.4112 115.934C49.6207 115.963 49.6568 116.064 49.6713 116.274C49.6858 116.469 49.6858 116.642 49.6858 117.596V118.68C49.6858 119.272 49.6858 119.756 49.6496 120.009C49.6207 120.19 49.6063 120.305 49.4834 120.334C49.4256 120.349 49.3462 120.363 49.2884 120.363C49.2522 120.363 49.2378 120.392 49.2378 120.414C49.2378 120.45 49.2739 120.464 49.339 120.464C49.534 120.464 49.9386 120.442 49.9747 120.442C50.0036 120.442 50.4082 120.464 50.7622 120.464C50.8345 120.464 50.8634 120.442 50.8634 120.414C50.8634 120.392 50.8489 120.363 50.8128 120.363C50.755 120.363 50.6178 120.349 50.5238 120.334C50.336 120.305 50.3143 120.19 50.2926 120.009C50.2637 119.756 50.2637 119.286 50.2637 118.694V118.08C50.2637 118.051 50.2782 118.044 50.2999 118.044H52.9513C52.973 118.044 52.9874 118.051 52.9874 118.08V118.694C52.9874 119.286 52.9874 119.749 52.9586 120.002C52.9369 120.182 52.9152 120.305 52.7852 120.334C52.7274 120.349 52.6552 120.363 52.5973 120.363C52.5612 120.363 52.5467 120.392 52.5467 120.414C52.5467 120.45 52.5757 120.464 52.6479 120.464C52.8357 120.464 53.2476 120.442 53.2764 120.442C53.3126 120.442 53.7171 120.464 54.064 120.464C54.1362 120.464 54.1723 120.442 54.1723 120.414C54.1723 120.392 54.1579 120.363 54.1145 120.363C54.0639 120.363 53.9195 120.349 53.8328 120.334C53.6377 120.305 53.6232 120.19 53.6016 120.009C53.5727 119.756 53.5654 119.272 53.5654 118.68V117.596ZM59.8582 115.313L60.7673 115.327C61.4597 115.342 61.6331 115.508 61.6548 115.725L61.662 115.804C61.6692 115.905 61.6837 115.927 61.7198 115.927C61.7499 115.927 61.7716 115.898 61.7716 115.833C61.7716 115.754 61.7932 115.255 61.7932 115.038C61.7932 114.995 61.7932 114.952 61.7571 114.952C61.7282 114.952 61.662 114.973 61.5536 114.988C61.438 115.009 61.2718 115.024 61.0419 115.024H58.3338C58.2471 115.024 57.9725 115.009 57.763 114.988C57.568 114.973 57.4957 114.901 57.4452 114.901C57.4162 114.901 57.3874 114.995 57.3729 115.038C57.3584 115.096 57.214 115.718 57.214 115.79C57.214 115.833 57.2284 115.855 57.2501 115.855C57.279 115.855 57.3007 115.84 57.3223 115.782C57.344 115.732 57.3657 115.681 57.4452 115.559C57.5607 115.385 57.7341 115.335 58.1821 115.327L59.2513 115.313V118.369C59.2513 119.063 59.2513 119.633 59.2152 119.937C59.1863 120.146 59.1502 120.305 59.0057 120.334C58.9406 120.349 58.854 120.363 58.7889 120.363C58.7456 120.363 58.7311 120.385 58.7311 120.406C58.7311 120.45 58.7673 120.464 58.8467 120.464C59.0635 120.464 59.5186 120.442 59.5547 120.442C59.5909 120.442 60.0449 120.464 60.4422 120.464C60.5217 120.464 60.5578 120.442 60.5578 120.406C60.5578 120.385 60.5434 120.363 60.5 120.363C60.435 120.363 60.2761 120.349 60.1749 120.334C59.9593 120.305 59.916 120.146 59.8944 119.937C59.8582 119.633 59.8582 119.063 59.8582 118.369V115.313ZM66.8807 117.596C66.8807 116.642 66.8807 116.469 66.8951 116.274C66.9096 116.057 66.9457 115.97 67.1119 115.934C67.1914 115.92 67.2275 115.92 67.2708 115.92C67.2997 115.92 67.3286 115.891 67.3286 115.869C67.3286 115.833 67.2925 115.819 67.2202 115.819C67.0324 115.819 66.6278 115.833 66.5917 115.833C66.5628 115.833 66.151 115.819 65.8692 115.819C65.797 115.819 65.7681 115.833 65.7681 115.869C65.7681 115.891 65.7897 115.92 65.8187 115.92C65.8765 115.92 65.9848 115.927 66.0354 115.934C66.2449 115.963 66.2738 116.064 66.2882 116.274C66.2955 116.469 66.3027 116.657 66.3027 117.61V117.74C66.3027 117.777 66.2883 117.777 66.2666 117.777H63.6151C63.5934 117.777 63.5789 117.777 63.5789 117.74V117.61C63.5789 116.657 63.5789 116.469 63.5862 116.274C63.6006 116.057 63.6367 115.97 63.8101 115.934C63.8824 115.92 63.9257 115.92 63.9691 115.92C63.9908 115.92 64.0196 115.891 64.0196 115.869C64.0196 115.833 63.9908 115.819 63.9186 115.819C63.7235 115.819 63.3189 115.833 63.2899 115.833C63.2538 115.833 62.8492 115.819 62.5603 115.819C62.488 115.819 62.4591 115.833 62.4591 115.869C62.4591 115.891 62.488 115.92 62.5097 115.92C62.5675 115.92 62.6759 115.927 62.7265 115.934C62.936 115.963 62.9721 116.064 62.9865 116.274C63.001 116.469 63.001 116.642 63.001 117.596V118.68C63.001 119.272 63.001 119.756 62.9648 120.009C62.936 120.19 62.9215 120.305 62.7987 120.334C62.7409 120.349 62.6614 120.363 62.6036 120.363C62.5675 120.363 62.5531 120.392 62.5531 120.414C62.5531 120.45 62.5892 120.464 62.6542 120.464C62.8492 120.464 63.2538 120.442 63.2899 120.442C63.3189 120.442 63.7235 120.464 64.0774 120.464C64.1497 120.464 64.1786 120.442 64.1786 120.414C64.1786 120.392 64.1642 120.363 64.1281 120.363C64.0702 120.363 63.933 120.349 63.8391 120.334C63.6512 120.305 63.6296 120.19 63.6079 120.009C63.5789 119.756 63.5789 119.286 63.5789 118.694V118.08C63.5789 118.051 63.5934 118.044 63.6151 118.044H66.2666C66.2883 118.044 66.3027 118.051 66.3027 118.08V118.694C66.3027 119.286 66.3027 119.749 66.2738 120.002C66.2521 120.182 66.2305 120.305 66.1004 120.334C66.0426 120.349 65.9704 120.363 65.9126 120.363C65.8765 120.363 65.862 120.392 65.862 120.414C65.862 120.45 65.8909 120.464 65.9631 120.464C66.1509 120.464 66.5628 120.442 66.5917 120.442C66.6278 120.442 67.0324 120.464 67.3792 120.464C67.4514 120.464 67.4875 120.442 67.4875 120.414C67.4875 120.392 67.4731 120.363 67.4297 120.363C67.3792 120.363 67.2347 120.349 67.148 120.334C66.9529 120.305 66.9385 120.19 66.9168 120.009C66.8879 119.756 66.8807 119.272 66.8807 118.68V117.596ZM68.9759 118.68C68.9759 119.272 68.9759 119.756 68.9397 120.009C68.9108 120.19 68.8964 120.312 68.7736 120.334C68.7157 120.341 68.6363 120.363 68.5785 120.363C68.5424 120.363 68.5279 120.392 68.5279 120.414C68.5279 120.45 68.564 120.464 68.6291 120.464C68.7302 120.464 68.8747 120.457 68.9975 120.45C69.1348 120.442 69.2576 120.442 69.2721 120.442C69.366 120.442 69.5322 120.442 69.7995 120.457C70.0596 120.464 70.428 120.479 70.9049 120.479C71.1505 120.479 71.2155 120.479 71.2588 120.32C71.295 120.19 71.3456 119.771 71.3456 119.727C71.3456 119.684 71.3383 119.633 71.3022 119.633C71.2661 119.633 71.2517 119.655 71.2372 119.727C71.201 119.973 71.1144 120.081 70.9482 120.153C70.782 120.219 70.4786 120.219 70.3124 120.219C69.6839 120.219 69.5683 120.139 69.5538 119.727C69.5466 119.604 69.5538 118.889 69.5538 118.68V118.167C69.5538 118.145 69.5611 118.123 69.5972 118.123C69.7055 118.123 70.3847 118.131 70.5581 118.152C70.8037 118.181 70.8615 118.253 70.8832 118.34C70.9121 118.42 70.9121 118.485 70.9121 118.542C70.9121 118.578 70.9266 118.6 70.9554 118.6C70.9988 118.6 71.0132 118.535 71.0132 118.485C71.0132 118.441 71.0276 118.21 71.0421 118.087C71.0566 117.885 71.0927 117.784 71.0927 117.748C71.0927 117.712 71.0782 117.697 71.0566 117.697C71.0349 117.697 71.006 117.733 70.9627 117.777C70.8976 117.842 70.8037 117.849 70.652 117.863C70.5075 117.878 69.6694 117.878 69.59 117.878C69.5538 117.878 69.5538 117.856 69.5538 117.813V116.144C69.5538 116.1 69.5611 116.079 69.59 116.079C69.6622 116.079 70.3991 116.086 70.5075 116.1C70.8543 116.144 70.9193 116.187 70.9627 116.288C70.9915 116.36 70.9988 116.462 70.9988 116.505C70.9988 116.556 71.0132 116.584 71.0493 116.584C71.0783 116.584 71.0999 116.548 71.1071 116.519C71.1216 116.447 71.1361 116.173 71.1432 116.115C71.1577 115.941 71.1939 115.869 71.1939 115.826C71.1939 115.797 71.1866 115.768 71.1649 115.768C71.1361 115.768 71.1071 115.79 71.0783 115.797C71.0276 115.804 70.9121 115.826 70.7893 115.833C70.6447 115.84 69.3154 115.833 69.2721 115.833C69.2359 115.833 68.8241 115.819 68.5352 115.819C68.4629 115.819 68.434 115.833 68.434 115.869C68.434 115.891 68.4629 115.92 68.4845 115.92C68.5424 115.92 68.6508 115.927 68.7013 115.934C68.9108 115.963 68.9469 116.064 68.9614 116.274C68.9759 116.469 68.9759 116.642 68.9759 117.596V118.68Z" fill="#201F1F"/>
<path d="M75.4708 118.369C75.4708 119.063 75.4708 119.633 75.4347 119.937C75.4058 120.146 75.3696 120.305 75.2252 120.334C75.1601 120.349 75.0735 120.363 75.0084 120.363C74.965 120.363 74.9506 120.385 74.9506 120.406C74.9506 120.45 74.9867 120.464 75.0662 120.464C75.283 120.464 75.7381 120.442 75.7743 120.442C75.8104 120.442 76.2655 120.464 76.6629 120.464C76.7424 120.464 76.7785 120.442 76.7785 120.406C76.7785 120.385 76.764 120.363 76.7207 120.363C76.6557 120.363 76.4967 120.349 76.3956 120.334C76.1788 120.305 76.1355 120.146 76.1138 119.937C76.0777 119.633 76.0777 119.063 76.0777 118.369V117.755C76.0777 117.704 76.0921 117.69 76.1283 117.69C76.2511 117.69 77.0386 117.69 77.2192 117.712C77.4432 117.74 77.5588 117.87 77.5949 117.972C77.6238 118.058 77.631 118.159 77.6383 118.232C77.6383 118.268 77.6527 118.297 77.6888 118.297C77.7394 118.297 77.7394 118.224 77.7394 118.159C77.7394 118.109 77.7539 117.82 77.7683 117.675C77.79 117.437 77.8261 117.314 77.8261 117.271C77.8261 117.235 77.8188 117.213 77.79 117.213C77.761 117.213 77.7394 117.249 77.7105 117.285C77.6454 117.379 77.5515 117.401 77.3781 117.415C77.277 117.423 77.1759 117.423 77.053 117.423L76.1283 117.43C76.0849 117.43 76.0777 117.408 76.0777 117.365V115.371C76.0777 115.313 76.0994 115.291 76.1427 115.291L77.2553 115.313C77.5371 115.32 77.7032 115.45 77.7466 115.544C77.79 115.638 77.8117 115.761 77.8117 115.819C77.8117 115.869 77.8261 115.905 77.8622 115.905C77.8983 115.905 77.9128 115.862 77.92 115.826C77.9344 115.739 77.9489 115.421 77.9561 115.349C77.9778 115.147 78.0139 115.06 78.0139 115.009C78.0139 114.973 77.9995 114.944 77.9705 114.944C77.9417 114.944 77.9128 114.973 77.8695 114.988C77.8044 115.009 77.6888 115.009 77.5515 115.017C77.3854 115.024 75.9188 115.017 75.7743 115.017L75.4781 115.009C75.3191 115.002 75.124 115.002 74.9579 115.002C74.8784 115.002 74.8423 115.017 74.8423 115.06C74.8423 115.089 74.8712 115.103 74.9001 115.103C74.9651 115.103 75.0879 115.111 75.1457 115.125C75.3841 115.176 75.4419 115.291 75.4564 115.537C75.4708 115.768 75.4708 115.97 75.4708 117.097V118.369ZM80.1597 117.596C80.1597 116.642 80.1597 116.469 80.1669 116.274C80.1813 116.057 80.2175 115.97 80.3909 115.934C80.4632 115.92 80.5065 115.92 80.5498 115.92C80.5715 115.92 80.6004 115.891 80.6004 115.869C80.6004 115.833 80.5715 115.819 80.4993 115.819C80.3042 115.819 79.8924 115.833 79.8635 115.833C79.8274 115.833 79.43 115.819 79.2204 115.819C79.1482 115.819 79.1194 115.833 79.1194 115.869C79.1194 115.891 79.141 115.92 79.1699 115.92C79.2133 115.92 79.2928 115.927 79.365 115.941C79.5023 115.97 79.5528 116.064 79.5673 116.274C79.5818 116.469 79.5818 116.642 79.5818 117.596V118.68C79.5818 119.272 79.5745 119.756 79.5456 120.009C79.524 120.19 79.5023 120.305 79.3794 120.334C79.3216 120.349 79.2421 120.363 79.1843 120.363C79.1482 120.363 79.1338 120.392 79.1338 120.414C79.1338 120.45 79.1699 120.464 79.2349 120.464C79.43 120.464 79.8274 120.442 79.8635 120.442C79.8924 120.442 80.3042 120.464 80.6582 120.464C80.7305 120.464 80.7593 120.442 80.7593 120.414C80.7593 120.392 80.7449 120.363 80.7088 120.363C80.651 120.363 80.5137 120.349 80.4198 120.334C80.232 120.305 80.2103 120.19 80.1886 120.009C80.1597 119.756 80.1597 119.272 80.1597 118.68V117.596ZM82.4427 116.729C82.6378 116.946 83.3519 117.697 84.0888 118.47C84.7595 119.171 85.677 120.074 85.7421 120.132C86.096 120.457 86.1623 120.508 86.2273 120.508C86.2706 120.508 86.2779 120.471 86.2779 120.067L86.2923 116.469C86.2923 116.1 86.3068 115.978 86.5163 115.934C86.5886 115.92 86.6391 115.92 86.668 115.92C86.7113 115.92 86.7403 115.884 86.7403 115.862C86.7403 115.826 86.6897 115.819 86.6247 115.819C86.3646 115.819 86.1551 115.833 86.0816 115.833C86.0094 115.833 85.7059 115.819 85.4169 115.819C85.3447 115.819 85.2941 115.826 85.2941 115.862C85.2941 115.884 85.3013 115.92 85.3447 115.92C85.3953 115.92 85.5397 115.927 85.6553 115.949C85.8504 115.985 85.8865 116.122 85.8938 116.519L85.9588 119.597C85.7637 119.395 85.0846 118.665 84.4572 118.015C83.4746 117.003 82.5511 116.021 82.45 115.92C82.3849 115.855 82.2765 115.732 82.2043 115.732C82.1537 115.732 82.1176 115.797 82.1176 116.043V119.561C82.1176 120.117 82.0959 120.284 81.937 120.327C81.8431 120.356 81.7275 120.363 81.6769 120.363C81.648 120.363 81.6263 120.385 81.6263 120.414C81.6263 120.457 81.6625 120.464 81.7275 120.464C82.0165 120.464 82.2838 120.442 82.3416 120.442C82.3994 120.442 82.6522 120.464 83.0122 120.464C83.0846 120.464 83.1279 120.45 83.1279 120.414C83.1279 120.385 83.1062 120.363 83.0773 120.363C83.0195 120.363 82.875 120.356 82.7594 120.327C82.5872 120.284 82.5294 120.132 82.515 119.626L82.4427 116.729ZM88.1214 118.68C88.1214 119.272 88.1214 119.756 88.0852 120.009C88.0563 120.19 88.0419 120.312 87.9191 120.334C87.8613 120.341 87.7818 120.363 87.724 120.363C87.6879 120.363 87.6734 120.392 87.6734 120.414C87.6734 120.45 87.7096 120.464 87.7746 120.464C87.8757 120.464 88.0202 120.457 88.143 120.45C88.2803 120.442 88.4032 120.442 88.4176 120.442C88.5115 120.442 88.6777 120.442 88.945 120.457C89.2051 120.464 89.5736 120.479 90.0504 120.479C90.296 120.479 90.3611 120.479 90.4043 120.32C90.4405 120.19 90.4911 119.771 90.4911 119.727C90.4911 119.684 90.4838 119.633 90.4477 119.633C90.4116 119.633 90.3972 119.655 90.3827 119.727C90.3466 119.973 90.2599 120.081 90.0938 120.153C89.9275 120.219 89.6241 120.219 89.458 120.219C88.8294 120.219 88.7138 120.139 88.6993 119.727C88.6921 119.604 88.6993 118.889 88.6993 118.68V118.167C88.6993 118.145 88.7066 118.123 88.7427 118.123C88.851 118.123 89.5302 118.131 89.7036 118.152C89.9492 118.181 90.007 118.253 90.0287 118.34C90.0577 118.42 90.0576 118.485 90.0576 118.542C90.0576 118.578 90.0721 118.6 90.1009 118.6C90.1443 118.6 90.1587 118.535 90.1587 118.485C90.1587 118.441 90.1732 118.21 90.1877 118.087C90.2021 117.885 90.2382 117.784 90.2382 117.748C90.2382 117.712 90.2238 117.697 90.2021 117.697C90.1804 117.697 90.1516 117.733 90.1082 117.777C90.0431 117.842 89.9492 117.849 89.7975 117.863C89.653 117.878 88.8149 117.878 88.7355 117.878C88.6993 117.878 88.6993 117.856 88.6993 117.813V116.144C88.6993 116.1 88.7066 116.079 88.7355 116.079C88.8077 116.079 89.5446 116.086 89.653 116.1C89.9998 116.144 90.0648 116.187 90.1082 116.288C90.1371 116.36 90.1443 116.462 90.1443 116.505C90.1443 116.556 90.1587 116.584 90.1948 116.584C90.2238 116.584 90.2455 116.548 90.2527 116.519C90.2671 116.447 90.2816 116.173 90.2888 116.115C90.3033 115.941 90.3394 115.869 90.3394 115.826C90.3394 115.797 90.3321 115.768 90.3105 115.768C90.2816 115.768 90.2527 115.79 90.2238 115.797C90.1732 115.804 90.0576 115.826 89.9348 115.833C89.7903 115.84 88.4609 115.833 88.4176 115.833C88.3814 115.833 87.9696 115.819 87.6807 115.819C87.6084 115.819 87.5795 115.833 87.5795 115.869C87.5795 115.891 87.6084 115.92 87.6301 115.92C87.6879 115.92 87.7963 115.927 87.8468 115.934C88.0563 115.963 88.0925 116.064 88.1069 116.274C88.1214 116.469 88.1214 116.642 88.1214 117.596V118.68ZM92.4923 120.544C92.8391 120.544 93.2365 120.5 93.5038 120.327C93.959 120.031 94.0963 119.641 94.0963 119.279C94.0963 118.752 93.8289 118.326 93.0559 117.798L92.8752 117.675C92.2467 117.249 92.0516 117.025 92.0516 116.635C92.0516 116.202 92.4345 115.97 92.8969 115.97C93.4676 115.97 93.6772 116.202 93.7205 116.274C93.7567 116.339 93.8073 116.505 93.8145 116.577C93.8217 116.628 93.8289 116.657 93.8722 116.657C93.9156 116.657 93.9229 116.613 93.9229 116.519C93.9229 116.1 93.9517 115.898 93.9517 115.869C93.9517 115.833 93.9373 115.826 93.8867 115.826C93.8361 115.826 93.7856 115.826 93.6627 115.797C93.511 115.761 93.2581 115.725 93.0053 115.725C92.1672 115.725 91.5965 116.158 91.5965 116.881C91.5965 117.307 91.8204 117.683 92.5067 118.196L92.7957 118.412C93.3593 118.831 93.5978 119.041 93.5978 119.482C93.5978 119.944 93.2726 120.298 92.644 120.298C92.2178 120.298 91.7409 120.139 91.6398 119.691C91.6181 119.604 91.6181 119.518 91.6181 119.467C91.6181 119.417 91.5965 119.395 91.5603 119.395C91.5242 119.395 91.5097 119.431 91.5097 119.496C91.5026 119.597 91.4736 119.843 91.4736 120.146C91.4736 120.312 91.4809 120.334 91.5675 120.377C91.8277 120.5 92.1961 120.544 92.4923 120.544ZM97.2751 116.1L98.0687 116.115C98.6743 116.129 98.8116 116.267 98.8333 116.454L98.8405 116.519C98.8477 116.606 98.8621 116.628 98.8911 116.628C98.9211 116.628 98.9501 116.599 98.9501 116.548C98.9501 116.476 98.9717 116.035 98.9717 115.848C98.9717 115.811 98.9717 115.775 98.9428 115.775C98.9139 115.775 98.8549 115.79 98.761 115.804C98.6599 115.819 98.5153 115.833 98.307 115.833H95.9096C95.8373 115.833 95.5917 115.826 95.4111 115.804C95.2377 115.782 95.1727 115.732 95.1293 115.732C95.1076 115.732 95.0715 115.811 95.0643 115.848C95.0498 115.898 94.9271 116.447 94.9271 116.512C94.9271 116.548 94.9559 116.563 94.9704 116.563C94.9993 116.563 95.021 116.556 95.0354 116.505C95.0571 116.462 95.0644 116.418 95.1366 116.31C95.2305 116.165 95.3822 116.122 95.7795 116.115L96.6971 116.1V118.68C96.6971 119.272 96.6971 119.756 96.6682 120.009C96.6465 120.19 96.6104 120.312 96.4804 120.341C96.4226 120.356 96.3503 120.37 96.2925 120.37C96.2564 120.37 96.2419 120.392 96.2419 120.414C96.2419 120.45 96.2709 120.464 96.3431 120.464C96.5309 120.464 96.9716 120.442 97.0006 120.442C97.0367 120.442 97.44 120.464 97.7868 120.464C97.8591 120.464 97.888 120.442 97.888 120.414C97.888 120.392 97.8807 120.363 97.8375 120.363C97.7796 120.363 97.6351 120.349 97.5485 120.334C97.3546 120.305 97.3257 120.19 97.304 120.009C97.2751 119.756 97.2751 119.272 97.2751 118.68V116.1Z" fill="#201F1F"/>
<path d="M114.941 89.7846V85.5168H116.756C117.212 85.5168 117.544 85.5555 117.751 85.632C117.958 85.7085 118.123 85.8446 118.248 86.0403C118.372 86.237 118.434 86.4606 118.434 86.7129C118.434 87.0338 118.341 87.2981 118.153 87.5067C117.965 87.7153 117.685 87.8464 117.312 87.901C117.498 88.0093 117.65 88.1286 117.771 88.2587C117.892 88.3889 118.055 88.6203 118.259 88.9521L118.78 89.7846H117.75L117.132 88.8528C116.91 88.522 116.758 88.3133 116.676 88.2269C116.594 88.1415 116.508 88.0818 116.417 88.0501C116.324 88.0183 116.179 88.0024 115.981 88.0024H115.806V89.7846H114.941ZM115.806 87.3229H116.443C116.857 87.3229 117.114 87.305 117.217 87.2703C117.32 87.2355 117.401 87.1749 117.459 87.0894C117.517 87.004 117.546 86.8967 117.546 86.7685C117.546 86.6245 117.507 86.5092 117.431 86.4198C117.354 86.3314 117.246 86.2758 117.107 86.2529C117.037 86.243 116.827 86.238 116.478 86.238H115.806V87.3229Z" fill="#201F1F"/>
<path fill-rule="evenodd" clip-rule="evenodd" d="M116.618 83.4943C118.913 83.4943 120.774 85.3552 120.774 87.6506C120.774 89.946 118.913 91.8069 116.618 91.8069C114.322 91.8069 112.461 89.946 112.461 87.6506C112.461 85.3552 114.322 83.4943 116.618 83.4943ZM116.618 84.4443C118.389 84.4443 119.824 85.8799 119.824 87.6506C119.824 89.4214 118.389 90.8569 116.618 90.8569C114.847 90.8569 113.412 89.4214 113.412 87.6506C113.412 85.8799 114.847 84.4443 116.618 84.4443Z" fill="#201F1F"/>
<defs>
<linearGradient id="paint0_linear_2_800" x1="103.251" y1="19.9417" x2="127.432" y2="19.9417" gradientUnits="userSpaceOnUse">
<stop stop-color="#244F36"/>
<stop offset="0.8" stop-color="#74C053"/>
<stop offset="1" stop-color="#A1D39D"/>
</linearGradient>
<linearGradient id="paint1_linear_2_800" x1="17.8702" y1="35.1438" x2="127.431" y2="35.1438" gradientUnits="userSpaceOnUse">
<stop stop-color="#244F36"/>
<stop offset="0.8" stop-color="#74C053"/>
<stop offset="1" stop-color="#A1D39D"/>
</linearGradient>
</defs>
</svg>
