<?xml version="1.0" encoding="UTF-8"?><svg id="Layer_2" xmlns="http://www.w3.org/2000/svg" viewBox="0 0 224.71 107.79"><defs><style>.cls-1{fill:#353635;}.cls-1,.cls-2,.cls-3{stroke-width:0px;}.cls-2{fill:#be854c;}.cls-3{fill:#00583d;}</style></defs><g id="Layer_1-2"><path class="cls-2" d="m67.64,35.12c10.04-12.73,25.03-20.84,41.76-20.84,20.91,0,39.11,12.66,48.31,31.21h15.59C163.05,18.82,138.31,0,109.4,0c-25,0-46.89,14.07-58.99,35.12h17.23Z"/><path class="cls-3" d="m31.76,90.47l3.71,2.79c.49.42,1.09.79,1.8,1.11.7.32,1.46.48,2.27.48,1.35,0,2.76-.88,4.25-2.65l.92.78c-1.07,2.17-2.48,4.17-4.22,6.01-1.74,1.84-4.03,2.76-6.86,2.76-1.78,0-3.47-.39-5.07-1.17-1.59-.78-3.64-2.05-6.13-3.82-3.76-2.76-6.64-4.98-8.62-6.68-1.92-1.06-3.45-2-4.58-2.83-1.13-.82-2.27-1.95-3.41-3.39-1.98-2.5-3.45-5.38-4.4-8.66-.95-3.27-1.43-6.61-1.43-10s.5-6.91,1.52-10.12c1.01-3.22,2.5-6.07,4.46-8.55,1.96-2.49,4.37-4.43,7.23-5.85,2.86-1.41,6.11-2.12,9.73-2.12s6.75.71,9.61,2.12c2.86,1.41,5.26,3.34,7.2,5.79,1.94,2.45,3.41,5.24,4.4,8.36.99,3.12,1.48,6.35,1.48,9.7,0,2.26-.23,4.57-.68,6.91-.45,2.35-1.13,4.55-2.03,6.61-.9,2.06-1.99,3.9-3.25,5.53-1.43,1.79-2.79,3.14-4.1,4.05-1.31.91-2.74,1.72-4.31,2.46.28.19.45.32.51.39Zm3.48-26.22c0-1.93-.1-4.02-.28-6.26-.19-2.24-.66-4.63-1.43-7.17-.76-2.54-2.02-4.74-3.77-6.59-1.75-1.85-4.09-2.77-7-2.77-5.03,0-8.35,2.47-9.95,7.42-1.6,4.95-2.41,10.6-2.41,16.96,0,5.25.75,10.41,2.24,15.46,1.49,5.05,4.85,7.58,10.06,7.58,2.08,0,3.95-.6,5.6-1.8,1.65-1.2,2.91-2.64,3.76-4.31,2.12-4.05,3.18-10.22,3.18-18.52Z"/><path class="cls-3" d="m71.51,91.1h-26.35v-1.02c2.3,0,3.77-.61,4.43-1.84.65-1.22.98-2.85.98-4.88v-36.54c0-1.86-.29-3.45-.88-4.77-.58-1.32-1.97-1.98-4.17-1.98h-.36v-1.02h22.82c3.03,0,5.54.41,7.54,1.24,1.01.47,2.07,1.14,3.18,2.02,1.11.87,2.13,2.1,3.05,3.68.92,1.58,1.38,3.45,1.38,5.62,0,2.76-.67,4.98-2.01,6.68-1.34,1.7-2.82,2.9-4.46,3.6-1.63.71-3.21,1.24-4.74,1.59v.14c1.25.14,2.65.42,4.2.85,1.55.42,3.06,1.11,4.51,2.05,1.46.94,2.7,2.31,3.73,4.12,1.03,1.8,1.55,4.07,1.55,6.8,0,2.87-.62,5.34-1.86,7.4-1.24,2.06-2.89,3.67-4.95,4.82-1.21.69-2.38,1.1-3.51,1.24-1.13.14-2.5.21-4.1.21Zm-8.17-49.15h-3.03v20.92h3.03c2.26,0,4.44-.64,6.54-1.93,2.1-1.28,3.15-4.21,3.15-8.78,0-3.37-.89-6.02-2.67-7.95-.61-.73-1.42-1.29-2.44-1.68-1.01-.39-2.54-.58-4.58-.58Zm.3,23.82h-3.33v16.64c0,2.52.52,4.12,1.58,4.79,1.05.67,2.39,1.01,4.01,1.01,1.07,0,2.08-.08,3.03-.25.95-.16,1.93-.58,2.94-1.24,1.01-.66,1.86-1.75,2.56-3.27.69-1.52,1.04-3.57,1.04-6.17,0-2.87-.52-5.16-1.56-6.85-1.04-1.7-2.44-2.9-4.2-3.6-1.76-.71-3.78-1.06-6.06-1.06Z"/><path class="cls-3" d="m93.32,77.08v-13.91c0-8.22,5.58-13.97,13.62-13.97,8.97,0,13.63,5.86,13.63,15.23v.11h-7.93v-.58c0-5.98-2.93-7.19-5.69-7.19s-5.63,1.49-5.63,6.15v14.37c0,4.77,2.88,6.21,5.63,6.21,3.68,0,5.69-1.78,5.69-7.7v-.52h7.93v.23c0,10.17-4.49,15.58-13.63,15.58-8.05,0-13.62-5.75-13.62-14.03Z"/><path class="cls-3" d="m125.51,77.08v-13.8c0-8.28,5.58-14.08,13.62-14.08s13.63,5.8,13.63,14.08v13.8c0,8.22-5.64,13.97-13.63,13.97s-13.62-5.75-13.62-13.97Zm13.62,6.38c2.7,0,5.69-1.44,5.69-6.09v-14.37c0-4.54-2.7-6.21-5.69-6.21-2.82,0-5.63,1.49-5.63,6.15v14.37c0,4.54,2.65,6.15,5.63,6.15Z"/><path class="cls-3" d="m157.69,49.94h12.88c8.1,0,13.57,5.23,13.57,14.66v1.15c0,6.27-2.7,10.46-7.07,12.42l6.84,12.3h-8.68l-5.46-10.46h-4.14v10.46h-7.93v-40.53Zm11.9,22.53c3.45,0,6.67-1.5,6.67-6.84v-1.15c0-5.58-3.1-6.96-6.67-6.96h-3.97v14.95h3.97Z"/><path class="cls-3" d="m189.07,49.94h12.7c7.99,0,13.74,5.23,13.74,14.72v1.61c0,9.54-5.75,14.54-13.74,14.54h-4.77v9.66h-7.93v-40.53Zm11.9,23.34c3.45,0,6.73-1.61,6.73-7.07v-1.49c0-5.98-3.39-7.19-6.73-7.19h-3.97v15.75h3.97Z"/><path class="cls-3" d="m215.51,86.39c0-2.53,2.07-4.6,4.6-4.6s4.6,2.07,4.6,4.6-2.01,4.54-4.6,4.54-4.6-2.01-4.6-4.54Z"/><path class="cls-1" d="m50.57,103.44v-2.91c0-1.72,1.17-2.92,2.82-2.92s2.82,1.2,2.82,2.92v2.91c0,1.38-.77,2.43-1.94,2.74l.98,1.61h-1.7l-.88-1.57c-1.26-.27-2.1-1.34-2.1-2.78Zm2.82,1.31c.62,0,1.18-.31,1.18-1.53v-2.5c0-1.18-.51-1.54-1.18-1.54-.58,0-1.17.31-1.17,1.28v2.75c0,1.19.49,1.54,1.17,1.54Z"/><path class="cls-1" d="m59.8,103.39v-5.62h1.64v5.68c0,.93.52,1.27,1.17,1.27.61,0,1.18-.35,1.18-1.27v-5.68h1.64v5.62c0,1.79-1.17,2.9-2.82,2.9s-2.81-1.1-2.81-2.9Z"/><path class="cls-1" d="m70.99,97.77h1.8l2.43,8.4h-1.68l-.44-1.66h-2.44l-.46,1.66h-1.67l2.47-8.4Zm1.76,5.33l-.86-3.29-.89,3.29h1.75Z"/><path class="cls-1" d="m78.41,97.77h1.64v6.83h2.79v1.57h-4.43v-8.4Z"/><path class="cls-1" d="m86.26,97.77h1.64v8.4h-1.64v-8.4Z"/><path class="cls-1" d="m93.12,99.35h-1.75v-1.58h5.15v1.58h-1.75v6.81h-1.64v-6.81Z"/><path class="cls-1" d="m101.45,103.14l-2.37-5.37h1.72l1.49,3.55,1.5-3.55h1.7l-2.39,5.37v3.03h-1.64v-3.03Z"/><path class="cls-1" d="m113.69,97.77h1.64v6.83h2.79v1.57h-4.43v-8.4Z"/><path class="cls-1" d="m123.22,97.77h1.8l2.43,8.4h-1.68l-.44-1.66h-2.44l-.46,1.66h-1.67l2.47-8.4Zm1.76,5.33l-.86-3.29-.89,3.29h1.75Z"/><path class="cls-1" d="m130.64,97.77h1.63l1.88,4.9,1.87-4.9h1.63v8.4h-1.64v-4.85l-1.31,3.28h-1.12l-1.3-3.25v4.83h-1.64v-8.4Z"/><path class="cls-1" d="m141.66,97.77h1.64v8.4h-1.64v-8.4Z"/><path class="cls-1" d="m147.32,97.77h1.55l2.47,4.88v-4.88h1.66v8.4h-1.55l-2.48-4.86v4.86h-1.64v-8.4Z"/><path class="cls-1" d="m158.67,97.77h1.8l2.43,8.4h-1.68l-.44-1.66h-2.44l-.46,1.66h-1.67l2.47-8.4Zm1.76,5.33l-.86-3.29-.89,3.29h1.75Z"/><path class="cls-1" d="m166.76,99.35h-1.75v-1.58h5.15v1.58h-1.75v6.81h-1.64v-6.81Z"/><path class="cls-1" d="m173.19,103.39v-2.86c0-1.72,1.16-2.92,2.82-2.92s2.82,1.2,2.82,2.92v2.86c0,1.7-1.17,2.9-2.82,2.9s-2.82-1.19-2.82-2.9Zm2.82,1.32c.56,0,1.18-.3,1.18-1.26v-2.98c0-.94-.56-1.29-1.18-1.29-.58,0-1.17.31-1.17,1.28v2.98c0,.94.55,1.27,1.17,1.27Z"/><path class="cls-1" d="m182.54,97.77h2.67c1.68,0,2.81,1.08,2.81,3.04v.24c0,1.3-.56,2.17-1.47,2.57l1.42,2.55h-1.8l-1.13-2.17h-.86v2.17h-1.64v-8.4Zm2.47,4.67c.71,0,1.38-.31,1.38-1.42v-.24c0-1.16-.64-1.44-1.38-1.44h-.82v3.1h.82Z"/><path class="cls-1" d="m191.28,103.4h1.64c0,.98.5,1.38,1.23,1.38s1.2-.32,1.2-1.01-.76-.93-1.63-1.2c-1.1-.37-2.33-.82-2.33-2.49,0-1.54,1.1-2.47,2.76-2.47s2.74,1.08,2.74,2.81h-1.62c0-.89-.44-1.31-1.14-1.31s-1.1.33-1.1.97c0,.71.72.94,1.55,1.2,1.11.35,2.42.75,2.42,2.48,0,1.6-1.14,2.55-2.85,2.55s-2.87-1.11-2.87-2.91Z"/></g></svg>